<?xml version="1.0" encoding="UTF-8"?>
<svg xmlns="http://www.w3.org/2000/svg" viewBox="0 0 95.97 99.84" width="18" height="19">
  <g fill="black">
    <path d="M47.99,99.84c9.04,0,18.08-2.35,26.15-7.06l-5.19-8.89c-12.92,7.54-28.99,7.54-41.91,0l-5.19,8.89c8.06,4.7,17.11,7.06,26.15,7.06Z"/>
    <path d="M19.44,45c-1.85,18.17,13.37,33.38,31.54,31.54,13.2-1.34,23.93-11.87,25.5-25.04.83-6.96-.85-13.5-4.24-18.85-1.59-2.51-1.25-5.78.85-7.88l.15-.15c1.54-1.54,3.74-2.34,5.87-1.88,2.44.53,5.1-.14,6.99-2.04,3-3,2.97-7.89-.09-10.85-2.83-2.74-7.49-2.82-10.4-.17-2.08,1.89-2.85,4.63-2.33,7.17.42,2.04-.06,4.16-1.53,5.63l-.46.46c-2.11,2.11-5.38,2.44-7.89.84-5.35-3.42-11.9-5.11-18.87-4.29-13.19,1.56-23.73,12.3-25.07,25.51ZM29.58,47.99c0-10.15,8.25-18.4,18.4-18.4s18.4,8.25,18.4,18.4c0,10.15-8.25,18.4-18.4,18.4-10.15,0-18.4-8.26-18.4-18.4Z"/>
    <path d="M88.5,27.44c.75-.47,1.44-1.01,2.08-1.62,3.52,6.76,5.39,14.31,5.39,22.16,0,12.84-4.99,24.89-14.04,33.95l-1.82-1.82c14.23-14.23,17.02-35.62,8.39-52.67Z"/>
    <path d="M14.04,14.04C23.09,4.99,35.15,0,47.99,0c8.35,0,16.36,2.12,23.43,6.08-.62.62-1.18,1.3-1.67,2.03C52.51-1.29,30.43,1.29,15.86,15.86c-17.72,17.72-17.72,46.54,0,64.25l-1.82,1.82c-18.72-18.72-18.72-49.18,0-67.89Z"/>
  </g>
</svg>